<svg width="72" height="72" viewBox="0 0 72 72" fill="none" xmlns="http://www.w3.org/2000/svg">
<mask id="path-1-inside-1_2_81" fill="white">
<path fill-rule="evenodd" clip-rule="evenodd" d="M26 0C24.8954 0 24 0.895431 24 2V24L2 24C0.895431 24 0 24.8954 0 26V46C0 47.1046 0.89543 48 2 48H24V70C24 71.1046 24.8954 72 26 72H46C47.1046 72 48 71.1046 48 70V48H70C71.1046 48 72 47.1046 72 46V26C72 24.8954 71.1046 24 70 24L48 24V2C48 0.895431 47.1046 0 46 0H26Z"/>
</mask>
<path fill-rule="evenodd" clip-rule="evenodd" d="M26 0C24.8954 0 24 0.895431 24 2V24L2 24C0.895431 24 0 24.8954 0 26V46C0 47.1046 0.89543 48 2 48H24V70C24 71.1046 24.8954 72 26 72H46C47.1046 72 48 71.1046 48 70V48H70C71.1046 48 72 47.1046 72 46V26C72 24.8954 71.1046 24 70 24L48 24V2C48 0.895431 47.1046 0 46 0H26Z" fill="#1F1F1F"/>
<path d="M24 24L24 25L25 25V24H24ZM2 24L2 23H2V24ZM24 48H25V47H24V48ZM48 48V47H47V48H48ZM70 24L70 25H70V24ZM48 24H47V25L48 25L48 24ZM25 2C25 1.44772 25.4477 1 26 1V-1C24.3431 -1 23 0.343147 23 2H25ZM25 24V2H23V24H25ZM2 25L24 25L24 23L2 23L2 25ZM1 26C1 25.4477 1.44772 25 2 25V23C0.343146 23 -1 24.3431 -1 26H1ZM1 46V26H-1V46H1ZM2 47C1.44772 47 1 46.5523 1 46H-1C-1 47.6568 0.343145 49 2 49V47ZM24 47H2V49H24V47ZM25 70V48H23V70H25ZM26 71C25.4477 71 25 70.5523 25 70H23C23 71.6569 24.3431 73 26 73V71ZM46 71H26V73H46V71ZM47 70C47 70.5523 46.5523 71 46 71V73C47.6569 73 49 71.6569 49 70H47ZM47 48V70H49V48H47ZM70 47H48V49H70V47ZM71 46C71 46.5523 70.5523 47 70 47V49C71.6569 49 73 47.6569 73 46H71ZM71 26V46H73V26H71ZM70 25C70.5523 25 71 25.4477 71 26H73C73 24.3431 71.6569 23 70 23V25ZM48 25L70 25L70 23L48 23L48 25ZM47 2V24H49V2H47ZM46 1C46.5523 1 47 1.44772 47 2H49C49 0.343146 47.6569 -1 46 -1V1ZM26 1H46V-1H26V1Z" fill="#1F1F1F" mask="url(#path-1-inside-1_2_81)"/>
</svg>
