<svg width="787" height="779" viewBox="0 0 787 779" fill="none" xmlns="http://www.w3.org/2000/svg">
<g opacity="0.3">
<path d="M475.123 342.653C500.54 386.678 484.687 443.416 439.713 469.381C394.739 495.347 337.676 480.708 312.258 436.683C286.841 392.659 302.694 335.921 347.668 309.955C392.642 283.99 449.705 298.629 475.123 342.653Z" fill="#E00707"/>
<path fill-rule="evenodd" clip-rule="evenodd" d="M586.984 724.463C759.286 624.985 829.821 417.967 759.856 242.033L559.542 357.685C571.594 425.031 540.352 496.305 476.531 533.152C412.71 569.999 335.363 561.419 283.066 517.308L82.7516 632.959C200.132 781.518 414.683 823.941 586.984 724.463ZM227.839 421.652L27.5248 537.304C-42.4399 361.37 28.0954 154.352 200.397 54.8739C372.698 -44.6044 587.249 -2.1807 704.629 146.377L504.315 262.029C452.018 217.918 374.671 209.338 310.85 246.185C247.029 283.032 215.787 354.306 227.839 421.652ZM475.123 342.653C500.54 386.678 484.687 443.416 439.713 469.381C394.739 495.347 337.676 480.708 312.258 436.683C286.841 392.659 302.694 335.921 347.668 309.955C392.642 283.99 449.705 298.629 475.123 342.653Z" fill="#E00707"/>
</g>
</svg>
