<svg width="1867" height="376" viewBox="0 0 1867 376" fill="none" xmlns="http://www.w3.org/2000/svg">
<path fill-rule="evenodd" clip-rule="evenodd" d="M0 276C27.5 247.337 101 237.089 208 259.5C315 281.337 407.5 297 534.5 297C645.717 297 702.5 272.755 809.5 240C907 210.153 1028 84.2465 1135 78.5C1242 72.7535 1431 162.33 1538 150.837C1677 135.906 1792 19 1867 75V0V107.837V375.337H1814C1760 375.337 1654 375.337 1547 375.337C1440 375.337 1334 375.337 1227 375.337C1120 375.337 1014 375.337 907 375.337C800 375.337 694 375.337 587 375.337C480 375.337 374 375.337 267 375.337C160 375.337 54 375.337 0 375.337V276Z" fill="#8257E5"/>
</svg>
